<svg xmlns="http://www.w3.org/2000/svg" xmlns:xlink="http://www.w3.org/1999/xlink" width="500" height="500" viewBox="0 0 132.292 132.292"><defs><linearGradient id="b"><stop offset="0" stop-color="#044682"/><stop offset="1" stop-color="#022850"/></linearGradient><linearGradient id="a"><stop offset="0" stop-opacity=".478"/><stop offset="1" stop-opacity="0"/></linearGradient><linearGradient xlink:href="#b" id="d" gradientUnits="userSpaceOnUse" gradientTransform="matrix(5.55606 0 0 5.55606 -9003.808 -4176.388)" x1="1632.411" y1="769.624" x2="1632.318" y2="757.012"/><linearGradient id="c"><stop stop-color="#044682" offset="0"/><stop stop-color="#022850" offset="1"/></linearGradient></defs><path d="M.001 0h132.291v132.292H0z" fill="#fff"/><path style="line-height:100%;-inkscape-font-specification:'Montserrat Ultra-Bold';font-variant-ligatures:discretionary-ligatures historical-ligatures;font-variant-caps:normal;font-variant-numeric:lining-nums tabular-nums slashed-zero;font-feature-settings:normal;text-align:end" d="M66.085 18.36l-.053.081a34.957 34.957 0 0 0-12.15 8.537c-3.681 4.004-6.413 8.918-7.603 14.226a28.478 28.478 0 0 0 .65 14.792 61.924 61.924 0 0 0-7.546 21.017 61.885 61.885 0 0 0 .106 20.647l12.482.09A33.704 33.704 0 0 1 56.04 83.9a33.55 33.55 0 0 1 4.258-6.051 26.97 26.97 0 0 0 5.826.855h.053A27.093 27.093 0 0 0 72 77.849 33.545 33.545 0 0 1 76.26 83.9a33.682 33.682 0 0 1 4.065 13.849l12.484-.09a61.904 61.904 0 0 0 .107-20.647 61.908 61.908 0 0 0-7.547-21.017 28.468 28.468 0 0 0 .65-14.792c-1.19-5.308-3.922-10.22-7.602-14.226a34.947 34.947 0 0 0-12.154-8.537l-.052-.086c0 .017-.055.017-.07.027 0-.018-.052-.018-.052-.02zm.339 20.906a8.438 8.438 0 1 1 0 16.876 8.439 8.439 0 1 1 0-16.876zm-4.195 44.683a24.162 24.162 0 0 0-3.058 6.452c-1.162 3.84-1.35 7.937-.867 11.921a36.763 36.763 0 0 0 8.146 18.924 37.94 37.94 0 0 0 7.565-18.637c.423-3.61.311-7.304-.572-10.83a25.26 25.26 0 0 0-3.416-7.77 21.327 21.327 0 0 1-3.905.33 22.079 22.079 0 0 1-3.893-.39z" font-weight="800" letter-spacing="-.257" font-family="Montserrat" text-anchor="end" fill="url(#d)" transform="translate(-.001)"/><path font-weight="600" d="M10.641 69.556c2.327 0 4.064.698 5.21 2.094 1.11 1.397 1.664 3.223 1.664 5.478a35.61 35.61 0 0 1-.376 5.155l-.86 5.156a122.2 122.2 0 0 0-.858 5.209 31.934 31.934 0 0 0-.43 5.263c0 2.613.394 4.994 1.181 7.142.752 2.184 1.916 4.046 3.491 5.585 1.54 1.575 3.49 2.793 5.854 3.652 2.327.859 5.066 1.289 8.216 1.289h2.9v-7.66s-2.047.034-2.512.034h-.806c-2.613 0-4.636-.842-6.068-2.524-1.468-1.647-2.202-3.92-2.202-6.82 0-1.97.125-3.867.376-5.693.215-1.826.466-3.616.752-5.37s.555-3.473.806-5.155a41.54 41.54 0 0 0 .322-5.156c0-2.685-.752-5.03-2.256-7.035-1.504-2.005-3.509-3.365-6.015-4.081a11.406 11.406 0 0 0 3.438-1.504 11.51 11.51 0 0 0 2.577-2.524 11.453 11.453 0 0 0 1.665-3.222c.394-1.217.59-2.488.59-3.813 0-1.718-.107-3.419-.321-5.101-.253-1.719-.52-3.455-.806-5.21a126.515 126.515 0 0 1-.752-5.316 41.965 41.965 0 0 1-.376-5.746c0-2.9.734-5.191 2.202-6.874 1.432-1.683 3.455-2.524 6.068-2.524h.806c.465 0 2.52.068 2.52.068v-7.64h-2.9c-3.151 0-5.89.43-8.217 1.289-2.363.86-4.314 2.076-5.854 3.652-1.575 1.54-2.738 3.4-3.49 5.585-.788 2.148-1.182 4.528-1.182 7.142 0 1.79.142 3.562.43 5.316.25 1.719.537 3.437.86 5.156l.858 5.155a35.81 35.81 0 0 1 .376 5.156c0 2.255-.555 4.081-1.664 5.477-1.146 1.397-2.882 2.095-5.21 2.095zm111.01 0c-2.327 0-4.063.698-5.21 2.094-1.109 1.397-1.664 3.223-1.664 5.478 0 1.719.125 3.437.376 5.155l.86 5.156c.321 1.718.608 3.455.859 5.209.286 1.718.43 3.473.43 5.263 0 2.613-.395 4.994-1.182 7.142-.752 2.184-1.916 4.046-3.49 5.585-1.54 1.575-3.491 2.793-5.854 3.652-2.328.859-5.066 1.289-8.217 1.289h-2.9v-7.66s2.047.034 2.512.034h.805c2.614 0 4.637-.842 6.069-2.524 1.468-1.647 2.202-3.92 2.202-6.82a41.75 41.75 0 0 0-.376-5.693 121.162 121.162 0 0 0-.752-5.37 367.095 367.095 0 0 1-.805-5.155 41.54 41.54 0 0 1-.323-5.156c0-2.685.752-5.03 2.256-7.035 1.503-2.005 3.508-3.365 6.014-4.081a11.402 11.402 0 0 1-3.437-1.504 11.498 11.498 0 0 1-2.577-2.524 11.462 11.462 0 0 1-1.665-3.222 12.31 12.31 0 0 1-.59-3.813c0-1.718.107-3.419.322-5.101.25-1.719.519-3.455.805-5.21.286-1.754.537-3.526.752-5.316.253-1.826.376-3.741.376-5.746 0-2.9-.734-5.191-2.202-6.874-1.432-1.683-3.455-2.524-6.069-2.524h-.805c-.465 0-2.52.068-2.52.068v-7.64h2.9c3.151 0 5.89.43 8.217 1.289 2.363.86 4.314 2.076 5.853 3.652 1.576 1.54 2.74 3.4 3.491 5.585.788 2.148 1.182 4.528 1.182 7.142 0 1.79-.143 3.562-.43 5.316-.25 1.719-.537 3.437-.86 5.156l-.858 5.155a35.776 35.776 0 0 0-.377 5.156c0 2.255.556 4.081 1.665 5.477 1.146 1.397 2.883 2.095 5.21 2.095z" style="line-height:100%;-inkscape-font-specification:'Lato Semi-Bold';font-variant-ligatures:discretionary-ligatures historical-ligatures;font-variant-caps:normal;font-variant-numeric:lining-nums tabular-nums slashed-zero;font-feature-settings:normal;text-align:center" font-family="Lato" text-anchor="middle" fill="#010101"/></svg>