<svg xmlns="http://www.w3.org/2000/svg" xmlns:xlink="http://www.w3.org/1999/xlink" width="1000" height="800" viewBox="0 0 264.583 211.667"><defs><linearGradient id="a"><stop offset="0" stop-color="#044682"/><stop offset="1" stop-color="#022850"/></linearGradient><linearGradient xlink:href="#a" id="b" gradientUnits="userSpaceOnUse" gradientTransform="matrix(19.62344 0 0 19.62344 -33626.237 -15370.754)" x1="1720.965" y1="790.894" x2="1721.025" y2="786.828"/></defs><path d="M0 0h264.583v211.667H0z" fill="#fff" fill-opacity=".999"/><path letter-spacing="-.257" font-weight="800" style="line-height:100%;-inkscape-font-specification:'Montserrat Ultra-Bold';font-variant-ligatures:discretionary-ligatures historical-ligatures;font-variant-caps:normal;font-variant-numeric:lining-nums tabular-nums slashed-zero;font-feature-settings:normal;text-align:end" d="M179.136 76.093v-4.784h11.615v-5.53h-11.614v-4.407h13.187v-5.715h-20.51v26.15h20.997v-5.715zm-20.731 6.237c4.824 0 8.709-1.759 11.247-4.931l-4.709-4.262c-1.64 1.98-3.658 3.067-6.161 3.067-4.298 0-7.284-2.991-7.284-7.474 0-4.482 2.986-7.468 7.284-7.468 2.503 0 4.518 1.08 6.161 3.06l4.71-4.256c-2.543-3.177-6.424-4.931-11.243-4.931-8.293 0-14.385 5.639-14.385 13.6 0 7.95 6.092 13.595 14.385 13.595zm-21.29-.523h7.694l-11.579-26.15h-7.282l-11.545 26.15h7.544l2.056-5.082h11.057zm-10.94-10.534l3.356-8.372 3.367 8.372zm-21.371-15.616H92.847v26.15h7.399v-6.836h4.558c7.132 0 11.62-3.698 11.62-9.638 0-5.98-4.488-9.676-11.62-9.676zm-.448 13.485h-4.11v-7.66h4.11c3.062 0 4.595 1.419 4.595 3.85 0 2.393-1.533 3.81-4.595 3.81zM79.026 82.33c7.771 0 11.58-3.885 11.58-8.444 0-9.64-14.831-6.65-14.831-10.645 0-1.311 1.12-2.356 4.222-2.356 2.277 0 4.74.673 7.247 2.02l2.277-5.493c-2.577-1.493-6.087-2.277-9.489-2.277-7.77 0-11.579 3.81-11.579 8.479 0 9.71 14.866 6.688 14.866 10.83 0 1.272-1.196 2.132-4.256 2.132a16.493 16.493 0 0 1-8.63-2.579l-2.428 5.454c2.463 1.718 6.725 2.879 11.022 2.879zm9.8 10.273zm0 0l-.044.06a27.873 27.873 0 0 0-9.689 6.81c-2.937 3.189-5.116 7.11-6.065 11.34a22.703 22.703 0 0 0 .52 11.797 49.37 49.37 0 0 0-6.017 16.754 49.375 49.375 0 0 0 .085 16.461l9.949.071a26.855 26.855 0 0 1 6.64-15.864 21.53 21.53 0 0 0 4.643.683h.044a21.52 21.52 0 0 0 4.647-.683 26.765 26.765 0 0 1 6.635 15.863l9.955-.071a49.304 49.304 0 0 0 .084-16.46 49.362 49.362 0 0 0-6.02-16.754 22.694 22.694 0 0 0 .522-11.797c-.952-4.23-3.128-8.15-6.064-11.34a27.863 27.863 0 0 0-9.688-6.81l-.045-.065c0 .013-.044.013-.053.022 0-.013-.044-.013-.044-.017zm.265 16.665a6.729 6.729 0 1 1 .01 13.457 6.729 6.729 0 0 1-.005-13.457zm-3.34 35.629a19.19 19.19 0 0 0-2.436 5.138c-.93 3.066-1.081 6.335-.696 9.506a29.317 29.317 0 0 0 6.495 15.088 30.247 30.247 0 0 0 6.033-14.857 24.107 24.107 0 0 0-.457-8.638 20.147 20.147 0 0 0-2.724-6.188 17.02 17.02 0 0 1-6.214-.05zm89.514 10.733h17.497V93.767h-17.497zm-56.453-61.863v61.863h17.497v-16.17h4.872c16.882 0 27.488-8.753 27.488-22.803 0-14.14-10.606-22.885-27.482-22.885zm23.553 9.21h.331l3.208 9.546 9.648 3.314v.332l-9.546 3.26-3.31 9.6h-.332l-3.362-9.546-9.492-3.314v-.332l9.541-3.366z" font-family="Montserrat" text-anchor="end" fill="url(#b)"/><path style="line-height:100%;-inkscape-font-specification:'Lato Semi-Bold';font-variant-ligatures:discretionary-ligatures historical-ligatures;font-variant-caps:normal;font-variant-numeric:lining-nums tabular-nums slashed-zero;font-feature-settings:normal;text-align:center" d="M29.986 111.107c3.6 0 6.288 1.081 8.06 3.242 1.719 2.16 2.577 4.986 2.577 8.476 0 2.66-.195 5.32-.581 7.978l-1.33 7.979a187.777 187.777 0 0 0-1.33 8.06 49.436 49.436 0 0 0-.664 8.145c0 4.044.609 7.729 1.828 11.053 1.163 3.38 2.964 6.26 5.4 8.643 2.384 2.438 5.403 4.321 9.06 5.65 3.6 1.33 7.84 1.995 12.715 1.995h4.487v-11.852s-3.166.051-3.887.051h-1.246c-4.045 0-7.175-1.302-9.391-3.906-2.272-2.548-3.408-6.066-3.408-10.554 0-3.047.195-5.983.582-8.809.332-2.826.72-5.596 1.164-8.31.443-2.715.858-5.375 1.246-7.979.333-2.659.499-5.318.499-7.978 0-4.155-1.164-7.784-3.49-10.886-2.328-3.103-5.43-5.208-9.31-6.316a17.647 17.647 0 0 0 5.32-2.327 17.799 17.799 0 0 0 3.989-3.906 17.748 17.748 0 0 0 2.577-4.986c.609-1.884.914-3.851.914-5.9 0-2.66-.164-5.292-.5-7.896-.39-2.66-.802-5.346-1.245-8.061a196.019 196.019 0 0 1-1.164-8.227c-.39-2.826-.582-5.79-.582-8.893 0-4.487 1.136-8.033 3.408-10.637 2.216-2.604 5.346-3.906 9.39-3.906h1.247c.72 0 3.899.106 3.899.106V29.333h-4.488c-4.875 0-9.113.664-12.715 1.994-3.656 1.33-6.676 3.213-9.058 5.65-2.438 2.383-4.238 5.264-5.402 8.644-1.22 3.324-1.828 7.008-1.828 11.053 0 2.77.22 5.512.665 8.227.385 2.66.83 5.319 1.33 7.978.442 2.66.886 5.319 1.329 7.978.385 2.66.58 5.319.58 7.978 0 3.49-.857 6.316-2.575 8.477-1.772 2.16-4.46 3.241-8.061 3.241zm204.607 0c-3.6 0-6.288 1.081-8.061 3.242-1.718 2.16-2.576 4.986-2.576 8.476 0 2.66.195 5.32.582 7.978l1.33 7.979c.498 2.659.94 5.346 1.329 8.06.443 2.66.665 5.375.665 8.145 0 4.044-.61 7.729-1.828 11.053-1.164 3.38-2.964 6.26-5.402 8.643-2.383 2.438-5.402 4.321-9.06 5.65-3.6 1.33-7.84 1.995-12.714 1.995h-4.488v-11.852s3.167.051 3.888.051h1.246c4.045 0 7.175-1.302 9.39-3.906 2.273-2.548 3.408-6.066 3.408-10.554 0-3.047-.195-5.983-.581-8.809a187.08 187.08 0 0 0-1.164-8.31 577.89 577.89 0 0 1-1.247-7.979 64.295 64.295 0 0 1-.498-7.978c0-4.155 1.163-7.784 3.49-10.886 2.327-3.103 5.43-5.208 9.308-6.316a17.649 17.649 0 0 1-5.32-2.327 17.799 17.799 0 0 1-3.988-3.906 17.748 17.748 0 0 1-2.576-4.986 19.058 19.058 0 0 1-.914-5.9c0-2.66.164-5.292.498-7.896.386-2.66.804-5.346 1.247-8.061a197.35 197.35 0 0 0 1.164-8.227c.39-2.826.58-5.79.58-8.893 0-4.487-1.134-8.033-3.406-10.637-2.216-2.604-5.346-3.906-9.39-3.906h-1.247c-.72 0-3.9.106-3.9.106V29.333h4.489c4.875 0 9.113.664 12.715 1.994 3.656 1.33 6.675 3.213 9.058 5.65 2.438 2.383 4.238 5.264 5.402 8.644 1.219 3.324 1.828 7.008 1.828 11.053 0 2.77-.221 5.512-.665 8.227-.385 2.66-.83 5.319-1.33 7.978l-1.33 7.978a55.562 55.562 0 0 0-.581 7.978c0 3.49.859 6.316 2.576 8.477 1.773 2.16 4.46 3.241 8.062 3.241z" font-weight="600" font-family="Lato" text-anchor="middle" fill="#010101"/></svg>