<svg xmlns="http://www.w3.org/2000/svg" width="230.8" height="247.5" viewBox="0 0 216.4 232"><linearGradient id="a" x2="1" y2="1"><stop offset="0%" stop-color="#28b7cf"/><stop offset="100%" stop-color="#1d4b69"/></linearGradient><path fill="url(#a)" d="M212 139c-3 16-29 34-58 38-15 2-30 3-46 3-26-2-46-7-46-7v8c4 25 26 27 47 28 21 0 39-6 39-6l1 19s-14 8-41 10c-14 1-32-1-53-6C9 214 1 165 0 116V76c0-50 33-65 33-65C50 3 78 0 108 0h1c29 0 58 3 74 11 0 0 33 15 33 65 0 0 1 37-4 63"/><path fill="#fff" d="M178 80v61h-25V82c0-13-5-19-15-19-12 0-18 8-18 22v33H96V85c0-14-6-22-17-22s-16 6-16 19v59H39V80c0-12 3-22 9-30 7-7 16-11 26-11 13 0 22 5 28 15l6 10 6-10c6-10 16-15 28-15 11 0 19 4 26 11 6 8 10 18 10 30"/></svg>