<svg xmlns="http://www.w3.org/2000/svg" viewBox="90 90 240 240"><style>;</style><linearGradient id="gradient" x2="1" y2="1"><stop offset="0%" stop-color="#28b7cf"/><stop offset="100%" stop-color="#1d4b69"/></linearGradient><path fill="url(#gradient)" d="M163 306c89 0 138-74 138-138v-6c9-7 17-15 24-25-9 4-18 7-28 8 10-6 18-16 21-27-9 6-19 10-30 12-9-10-22-15-36-15a48 48 0 00-47 59c-40-2-75-21-99-51a48 48 0 0015 65c-8-1-15-3-22-6 0 24 17 43 39 47a48 48 0 01-22 1c6 19 24 33 45 34a97 97 0 01-71 20c21 14 46 22 73 22" id="Logo__x2014__FIXED"/></svg>