<svg version="1" xmlns="http://www.w3.org/2000/svg" width="933.333" height="933.333" viewBox="0 0 700.000000 700.000000"><path d="M165 89.1c-20.9 1.6-41.6 9.2-54.7 19.9-22.5 18.3-33.5 49.2-30.4 85.3.6 6.8 3.3 25.6 6.1 41.9 6.1 36.3 7.7 52.6 6.1 63.4-2.9 19.4-13.1 30-30.8 32.1l-5.3.6v35.4l6.1.7c16.8 1.9 27.2 12.9 30 31.8 1.6 10.7 0 26.8-6.1 63.3-6.4 38.1-7.6 51-6.1 65.4 4.4 42.4 26.3 68.8 65.1 78.8 9.8 2.5 43.7 5.4 47.3 4 1.5-.6 1.7-2.7 1.7-20.6v-19.9l-14.7-.4c-18.9-.5-24-2.3-32.8-11.2-10.5-10.7-13.5-19.7-13.5-41.1 0-15.3 2.1-34.6 7.1-65 4-24.2 5.1-50.4 2.5-60.5-2.8-11.1-7.2-18.7-16.1-27.5-7.4-7.5-13.2-11.3-22-14.5l-3-1.1 5.7-2.3c9.2-3.8 14.1-7.1 20.9-14.3 7-7.5 11.8-16.2 14.4-26.4 2.7-10.3 1.6-35.8-2.8-63.4-5.9-37.2-6.9-47.2-6.5-64.9.4-13.4.8-17.1 2.6-22.1 4.7-12.9 13.7-22 25.5-25.7 4.9-1.6 8.9-2 19.5-2l13.2.1V88l-9.2.1c-5.1.1-14 .6-19.8 1zM506 108.4v20.5l13.3-.1c10.5 0 14.5.4 19.4 2 11.8 3.7 20.8 12.8 25.5 25.7 1.8 5 2.2 8.7 2.6 22.2.4 17.9-.5 27.6-6.5 64.8-4.3 27.2-5.5 51.9-2.9 62.7 2.4 10.3 7.3 19.4 14.5 27.1 6.8 7.2 11.7 10.5 20.9 14.3l5.7 2.3-3 1.1c-8.8 3.2-14.6 7-22 14.5-8.9 8.8-13.3 16.4-16.1 27.5-2.6 10.1-1.5 36.3 2.5 60.5 7.1 43.3 9 71.9 5.6 85-3.6 13.6-13.1 25.2-24.3 29.6-4.8 1.9-8.1 2.4-20.4 2.7l-14.8.4v19.9c0 17.9.2 20 1.7 20.6 3.6 1.4 37.5-1.5 47.3-4 38.8-10 60.7-36.4 65.1-78.8 1.5-14.4.3-26.8-6.5-68.4-3-18.2-5.7-37.7-6.1-43.5-1.8-29.1 8.8-46.1 30.4-48.6l6.1-.7v-35.4l-5.3-.6c-17.7-2.1-27.9-12.7-30.8-32.1-1.6-10.8 0-27.1 6.1-63.4 2.8-16.3 5.5-35.1 6.1-41.9 3.1-36.1-7.9-67-30.4-85.3-8.2-6.8-22.1-13.4-34.1-16.5-9.6-2.4-29.2-4.5-42.8-4.5H506v20.4zM337.5 103.3c-32.4 16.9-56.7 39.5-74.1 68.9-14.6 24.8-21.6 49.8-21.7 77.8-.1 15.3 1.1 25.6 4.5 38.3l2 7.7-7.5 14.8c-32.5 63.6-43.7 134.3-32.2 202.9l.6 3.3H242c25.7 0 33-.3 33-1.3.1-3.9 3.3-22.9 5.1-29.9 6.2-24.4 20.6-52.5 36.1-70.7l2.7-3.2 8.3 1.8c11.4 2.5 34.2 2.5 45.6 0l8.3-1.8 2.7 3.2c12.5 14.7 26.4 39.7 32.6 58.7 2 6.1 3.6 11.8 3.6 12.7 0 .9.9 1.5 2.5 1.5 1.8 0 2.5.5 2.5 2 0 1-.7 2.3-1.5 2.7-1.3.8-1.3 2.2.2 12.6l1.6 11.7h65.5l.6-2.7c1.7-8.1 3.7-28.5 4.2-42.7 1.1-26.8-1.9-57.3-8.3-84.3-2.5-10.5-2.8-11.2-5.2-11.5-3.3-.4-4.2-3.7-1.2-4.5 1.2-.3 2.1-.7 2.1-.9 0-.3-1.6-5.4-3.5-11.4-5-15.4-12.5-33.2-20.7-49.2l-7-13.6 2.1-8.4c6.2-25.1 6.2-49.1.2-73.2-12-47.6-46.1-88.5-93.2-112.2-6-3-11-5.4-11.1-5.4-.2 0-5.7 2.9-12.3 6.3zm27.3 106.5c7.3 2.3 16.2 8.1 20.6 13.6 19 23.1 11.6 56.6-15.3 69.5-7.3 3.5-8 3.6-18.6 3.6-10.6 0-11.3-.1-18.6-3.6-9.9-4.8-17-11.9-21.7-21.8-9.1-19-3.2-42.1 13.9-54.7 10.9-8 26.7-10.6 39.7-6.6zm84 50.9c.5 1.7-2.6 2.9-4 1.5-.6-.6-.7-1.5-.3-2.2.9-1.4 3.7-.9 4.3.7zM381.5 306c0 2.9-3.2 4.1-4.1 1.6-.9-2.4.4-4.8 2.3-4.4 1.2.2 1.8 1.2 1.8 2.8zm6.3 10.7c-.2 1-1 1.8-1.8 1.8s-1.6-.8-1.8-1.8c-.2-1.2.3-1.7 1.8-1.7s2 .5 1.8 1.7zm-36.8-.3c0 1.1-1.9 1.5-2.5.6-.3-.5.1-1 .9-1 .9 0 1.6.2 1.6.4zm49 15.1c0 .8-.4 1.5-.9 1.5-1.3 0-2.2-1.6-1.4-2.4 1.1-1.1 2.3-.6 2.3.9zm32 3.1c0 .8-.5 1.2-1 .9-.6-.4-.8-1.1-.5-1.6.9-1.4 1.5-1.1 1.5.7zm-107.5 3.9c.1 1.1.4 2.6.8 3.3.5.6.5 1.6.2 2.2-1 1.6-3.5 1.1-3.5-.6 0-.9-.7-2.2-1.7-2.9-2.3-1.7-1-4.7 1.9-4.3 1.5.2 2.3 1 2.3 2.3zm93.5 1.1c0 1.6-1.6 1.9-2.5.4-.8-1.3.4-3.2 1.6-2.5.5.4.9 1.3.9 2.1zm-142 3.9c0 .8-.7 1.5-1.5 1.5s-1.5-.7-1.5-1.5.7-1.5 1.5-1.5 1.5.7 1.5 1.5zm57.8 2.3c.4 2.8-2.4 4-4.5 1.9-1.4-1.3-1.4-1.9-.3-3.2 1.8-2.2 4.4-1.5 4.8 1.3zm-18 2c.3 1.7-.2 2.2-1.7 2.2-1.4 0-2.1-.6-2.1-1.8 0-3.8 3.3-4.1 3.8-.4zm-59.8.7c0 .8-.4 1.5-1 1.5-.5 0-1-.7-1-1.5s.5-1.5 1-1.5c.6 0 1 .7 1 1.5zm131.5 5.5c.3.5.1 1-.4 1-.6 0-1.1-.5-1.1-1 0-.6.2-1 .4-1 .3 0 .8.4 1.1 1zm-92.5 8.5c0 1.8-.5 2.5-1.9 2.5-1.1 0-2.3-.5-2.6-1-1.1-1.8.3-4 2.5-4 1.5 0 2 .7 2 2.5zm173.6 2c-.3.9-1.4 1.5-2.3 1.3-2.2-.4-3-3.8-1.1-4.9 1.8-1.1 4.3 1.5 3.4 3.6zM401 363c0 .5-.4 1-1 1-.5 0-1-.5-1-1 0-.6.5-1 1-1 .6 0 1 .4 1 1zm-79.6 3.8c.8 1.3-1.1 3.5-2.3 2.8-1.6-1-1.4-3.6.3-3.6.8 0 1.7.4 2 .8zm126.3 3.6c-.4.9-1.3 1.3-2.2 1-1.8-.7-2-3.1-.2-3.7 1.7-.6 3.1.9 2.4 2.7zm10.9 3.8c.9 2.8-2 5.2-4.7 3.7-1.9-1-2.5-3.9-1.2-5.2 1.5-1.6 5.2-.6 5.9 1.5zm-39.8 6.1c.2 1.2-.3 1.7-1.7 1.7-1.2 0-2.1-.6-2.1-1.3 0-3.1 3.2-3.4 3.8-.4zm37.7 2.4c-.2.7.2 1.3 1.1 1.3 2.4 0-1.6 4.7-4.5 5.3-5.4 1.1-8-4.5-3.2-6.9 3-1.5 7.3-1.3 6.6.3zm-24 3.3c-.3.5-1 1-1.6 1-.5 0-.9-.5-.9-1 0-.6.7-1 1.6-1 .8 0 1.2.4.9 1zM297 387.5c0 .8-.7 1.5-1.5 1.5s-1.5-.7-1.5-1.5.7-1.5 1.5-1.5 1.5.7 1.5 1.5zm121.8.2c-.4 2.2-2.2 2-2.6-.1-.2-1 .3-1.6 1.3-1.6s1.5.7 1.3 1.7zm-43.8.3c0 .5-.4 1-1 1-.5 0-.9.3-.9.7.4 2.5-.3 3.4-2.3 3.1-1.5-.2-2.4-1.1-2.6-2.5-.3-1.7.3-2.2 2.5-2.6 1.5-.2 3.1-.5 3.6-.6.4 0 .7.3.7.9zm66.8 1.9c.8.4 1.2 1.9 1 3.2-.2 1.8-.9 2.4-2.8 2.4s-2.6-.6-2.8-2.4c-.3-2 1.1-4.1 2.8-4.1.3 0 1.1.4 1.8.9zM454 397c0 .5-.7 1-1.6 1-.8 0-1.2-.5-.9-1 .3-.6 1-1 1.6-1 .5 0 .9.4.9 1zm-17 17c0 .5-.4 1-1 1-.5 0-1-.5-1-1 0-.6.5-1 1-1 .6 0 1 .4 1 1zm12 2c0 1.3-.7 2-2 2-1.9 0-2.7-2-1.3-3.3 1.3-1.4 3.3-.6 3.3 1.3zm-41 3c0 1.1-.6 2-1.4 2-1.8 0-2.9-1.6-2.1-3 1.1-1.8 3.5-1.1 3.5 1zm-164.4.1c1 1.7-1.3 3.6-2.7 2.2-1.2-1.2-.4-3.3 1.1-3.3.5 0 1.2.5 1.6 1.1zm21.4-.1c0 .5-.4 1-1 1-.5 0-1-.5-1-1 0-.6.5-1 1-1 .6 0 1 .4 1 1zm-1 4c0 .5-.4 1-1 1-.5 0-1-.5-1-1 0-.6.5-1 1-1 .6 0 1 .4 1 1zm147.5 6c0 1.6-.6 2.6-1.8 2.8-1.9.4-3.2-2-2.3-4.4.9-2.5 4.1-1.3 4.1 1.6zm-122.2 12.4c.7 1.6-.1 2.6-2 2.6-.7 0-1.3-.9-1.3-2 0-2.3 2.5-2.7 3.3-.6zm-10.5 16.7c-.2.6-.8 1-1.3 1s-1.1-.4-1.3-1c-.2-.6.4-1.1 1.3-1.1s1.5.5 1.3 1.1zM448 476.6c0 1.4-2.1 1.9-3.3.7-.9-.9 1.3-3.4 2.4-2.7.5.3.9 1.2.9 2z"/><path d="M326.8 448.2c-8.7 14.9-13.8 28.2-16.8 43.8-6.6 34-.8 73.5 15.9 108.5 9 18.8 23.9 41.4 26.3 39.9.6-.4 4.2-5.4 8-11.3 35.3-54.2 42.5-121.9 18.2-170.4-7.3-14.5-4.4-13.1-26.6-13.2-10.6 0-20-.4-20.9-.8-1.3-.6-2.2.2-4.1 3.5zm37 14.1c.2 1.2-.3 1.7-1.7 1.7-1.5 0-2.1-.6-2.1-2.1 0-2.5 3.3-2.2 3.8.4z"/></svg>